<svg width="20" height="20" viewBox="0 0 20 20" fill="none" xmlns="http://www.w3.org/2000/svg">
<path d="M4.32255 15.3551C4.36719 15.3551 4.41183 15.3506 4.45647 15.344L8.21094 14.6855C8.25558 14.6765 8.29799 14.6565 8.32924 14.623L17.7913 5.16091C17.812 5.14026 17.8284 5.11574 17.8396 5.08873C17.8508 5.06173 17.8566 5.03278 17.8566 5.00355C17.8566 4.97431 17.8508 4.94537 17.8396 4.91836C17.8284 4.89136 17.812 4.86683 17.7913 4.84618L14.0815 1.13413C14.0391 1.09172 13.9833 1.0694 13.923 1.0694C13.8627 1.0694 13.8069 1.09172 13.7645 1.13413L4.30246 10.5962C4.26897 10.6297 4.24888 10.6698 4.23996 10.7145L3.58147 14.469C3.55976 14.5885 3.56752 14.7116 3.60408 14.8275C3.64064 14.9434 3.7049 15.0487 3.79129 15.1341C3.93862 15.277 4.12388 15.3551 4.32255 15.3551ZM5.82701 11.4623L13.923 3.3685L15.5592 5.00466L7.46317 13.0984L5.4788 13.4489L5.82701 11.4623ZM18.2132 17.2301H1.7846C1.38951 17.2301 1.07031 17.5493 1.07031 17.9444V18.748C1.07031 18.8462 1.15067 18.9265 1.24888 18.9265H18.7489C18.8471 18.9265 18.9275 18.8462 18.9275 18.748V17.9444C18.9275 17.5493 18.6083 17.2301 18.2132 17.2301Z" fill="#F38C00"/>
</svg>
