<svg width="20" height="20" viewBox="0 0 20 20" fill="none" xmlns="http://www.w3.org/2000/svg">
<path d="M18.1313 5.34029L14.6591 1.86807C14.5942 1.80371 14.5172 1.75279 14.4326 1.71823C14.348 1.68367 14.2574 1.66615 14.166 1.66668H3.0549C2.68655 1.66668 2.33328 1.81301 2.07281 2.07348C1.81234 2.33395 1.66602 2.68722 1.66602 3.05557V16.9445C1.66602 17.3128 1.81234 17.6661 2.07281 17.9265C2.33328 18.187 2.68655 18.3333 3.0549 18.3333H16.9438C17.3121 18.3333 17.6654 18.187 17.9259 17.9265C18.1863 17.6661 18.3327 17.3128 18.3327 16.9445V5.83335C18.3332 5.74195 18.3157 5.65136 18.2811 5.56675C18.2466 5.48214 18.1956 5.40518 18.1313 5.34029ZM7.22157 3.05557H12.7771V5.83335H7.22157V3.05557ZM12.7771 16.9445H7.22157V11.3889H12.7771V16.9445ZM14.166 16.9445V11.3889C14.166 11.0205 14.0197 10.6673 13.7592 10.4068C13.4987 10.1463 13.1455 10 12.7771 10H7.22157C6.85321 10 6.49994 10.1463 6.23948 10.4068C5.97901 10.6673 5.83268 11.0205 5.83268 11.3889V16.9445H3.0549V3.05557H5.83268V5.83335C5.83268 6.2017 5.97901 6.55497 6.23948 6.81544C6.49994 7.07591 6.85321 7.22224 7.22157 7.22224H12.7771C13.1455 7.22224 13.4987 7.07591 13.7592 6.81544C14.0197 6.55497 14.166 6.2017 14.166 5.83335V3.34029L16.9438 6.11807V16.9445H14.166Z" fill="#F38C00"/>
</svg>
